<?xml version="1.0" encoding="iso-8859-1"?>
<!-- Generator: Adobe Illustrator 19.0.0, SVG Export Plug-In . SVG Version: 6.00 Build 0)  -->
<svg version="1.1" id="Layer_1" xmlns="http://www.w3.org/2000/svg" xmlns:xlink="http://www.w3.org/1999/xlink" x="0px" y="0px"
	 viewBox="0 0 512.511 512.511" style="enable-background:new 0 0 512.511 512.511;" xml:space="preserve">
<g>
	<g>
		<path d="M506.861,134.209c1.6-6,2.4-26-24-43.2c5.2-17.6,7.6-44.4-2.8-67.2c-0.8-2-3.2-2.8-5.2-2l-31.2,11.6
			c-1.2,0.4-2,1.2-2.4,2.4c-0.4,1.2,0,2.4,0.4,3.6c6.4,9.2,16.4,26.8,16.8,44.4c-16.8-1.2-39.2,3.2-47.2,18
			c-6.8,2.8-13.2,6.4-19.2,10.8c-23.6,17.2-33.2,54.4-44.8,97.6c-28,105.6-66.8,250.8-333.6,241.6c-9.2-0.4-13.2,4.8-13.6,10
			c-0.8,8.4,6.4,18.4,15.2,20c34.8,6,68.8,9.2,101.6,9.2c104,0,197.2-30.4,269.6-89.2c76.4-62,123.6-151.2,126-238.8
			C512.861,152.609,510.861,143.009,506.861,134.209z M462.461,92.209c1.2,0,2.4,0,3.2-0.8c0.8-0.8,1.2-1.6,1.6-2.8
			c1.2-18.4-7.2-36.4-15.6-49.2l22.8-8.4c8.4,21.2,5.6,46,0.4,60.8c-0.8,1.6,0,3.6,1.6,4.8c20,12,23.2,25.2,23.6,32.4
			c-4-1.6-8-2-12-2c-6.8,0-12,2-16.8,4c-6,2.4-11.2,4-16.8,1.2c-7.6-3.6-9.2-10.8-10.8-18.8l-0.4-2c-0.8-4.4-5.2-9.6-19.6-10
			C432.061,93.009,449.661,90.609,462.461,92.209z M505.661,162.609c-3.2,85.2-49.2,172.4-123.6,232.8
			c-93.2,75.6-222.8,103.6-364.8,78c-4.8-0.8-8.8-7.2-8.4-11.2c0-0.8,0.4-2.8,5.6-2.8c120.8,4,206.8-22.4,262.8-80.4
			c48-49.6,65.2-114.8,79.2-167.2c11.2-41.6,20.8-77.6,41.6-92.8c5.6-4,11.6-7.6,18-10c1.2,0,3.6-0.4,6.4-0.4c8.4,0,12.4,2,12.8,3.6
			l0.4,2c1.6,8.4,4,19.2,15.2,24.4c3.2,1.6,6.4,2.4,10,2.4c4.8,0,9.2-1.6,13.2-3.2c4.4-1.6,8.8-3.2,14-3.2c4,0,8,0.8,12.8,2.8
			C504.461,145.009,506.061,153.409,505.661,162.609z"/>
	</g>
</g>
<g>
	<g>
		<path d="M414.061,136.209c-1.2-1.6-2.8-2.4-4.8-1.2c-8,6-14.8,18-22,38.8c-0.8,2,0.4,4.4,2.4,5.2c0.4,0,0.8,0.4,1.2,0.4
			c1.6,0,3.2-1.2,3.6-2.8c6.4-18.8,12.4-30,18.8-34.8C414.861,140.609,415.261,137.809,414.061,136.209z"/>
	</g>
</g>
<g>
	<g>
		<path d="M332.061,401.809c-0.8-2.4-3.2-2.8-5.2-1.6c-31.2,18.8-65.6,33.2-102.4,42.4c-2,0.4-3.6,2.8-2.8,4.8c0.4,2,2,3.2,4,3.2
			c0.4,0,0.8,0,0.8,0c37.6-9.2,72.8-24,104.4-43.2C332.861,406.209,333.261,403.809,332.061,401.809z"/>
	</g>
</g>
<g>
	<g>
		<path d="M384.061,199.009c-2-0.4-4.4,0.8-4.8,2.8c-1.2,4.8-2.8,9.6-4,14.8v0.4c-7.2,27.6-15.6,58.8-28.8,90c-0.8,2,0,4.4,2,5.2
			c0.4,0.4,1.2,0.4,1.6,0.4c1.6,0,3.2-0.8,3.6-2.4c13.2-31.6,21.6-63.2,29.2-91.2v-0.4c1.2-4.8,2.8-10,4-14.8
			C387.661,201.809,386.061,199.409,384.061,199.009z"/>
	</g>
</g>
<g>
</g>
<g>
</g>
<g>
</g>
<g>
</g>
<g>
</g>
<g>
</g>
<g>
</g>
<g>
</g>
<g>
</g>
<g>
</g>
<g>
</g>
<g>
</g>
<g>
</g>
<g>
</g>
<g>
</g>
</svg>
